<svg width="406" height="306" viewBox="0 0 406 306" fill="none" xmlns="http://www.w3.org/2000/svg">
<g clip-path="url(#clip0)">
<path opacity="0.24" d="M399.011 215.351C393.558 226.219 384.687 234.917 375.969 243.414C366.157 252.957 356.23 262.615 345.43 270.939C338.544 276.355 331.149 281.091 323.348 285.08C296.879 298.377 266.33 300.441 236.722 301.949C211.338 303.245 185.916 304.32 160.493 304.829C138.297 305.27 113.316 308.055 91.4938 303.129C77.1889 299.875 70.4685 291.004 60.4647 281.23C58.1797 279.003 55.866 276.833 53.5234 274.721C40.6394 262.989 27.2658 252.429 17.2908 237.49C1.92979 214.324 -4.67543 183.64 6.73009 158.247C16.1867 137.125 36.3095 122.638 57.0756 112.413C68.9228 106.557 81.3748 101.699 92.6171 94.6907C114.343 81.1347 130.338 60.4166 147.821 41.657C165.303 22.8974 186.041 5.17473 211.281 0.950464C244.028 -4.56028 276.881 14.5929 297.504 40.6298C311.002 57.6804 320.814 77.9761 337.624 91.7338C345.881 98.4542 355.491 103.36 363.949 109.869C374.03 117.55 382.286 127.496 389.055 138.239C403.523 161.223 411.136 191.1 399.011 215.351Z" fill="#55B49E"/>
<path d="M309.869 197.532C309.952 181.756 304.22 166.503 293.769 154.685C292.806 153.767 292.05 152.654 291.551 151.421C291.198 149.886 291.343 148.279 291.964 146.832C293.453 142.673 295.997 138.973 299.346 136.094C302.695 133.214 306.735 131.254 311.069 130.405L325.077 149.549C334.303 162.183 343.769 175.297 346.966 190.601C350.163 205.904 345.103 224.078 331.288 231.384C326.017 234.178 319.969 235.167 314.007 235.503C298.339 236.367 282.018 232.623 269.71 222.907C267.338 220.987 265.073 218.846 263.882 216.062C262.692 213.277 262.692 209.869 263.085 206.739C263.988 199.539 269.22 180.098 278.734 180.376C283.477 180.511 288.796 186.828 292.578 189.266C297.974 192.733 303.783 195.51 309.869 197.532Z" fill="#55B49E"/>
<path d="M101.162 206.989H83.8421V234.197H101.162V206.989Z" fill="#55B49E"/>
<path d="M101.162 206.989H83.8421V234.197H101.162V206.989Z" fill="url(#paint0_linear)"/>
<path d="M111.599 197.297L99.4864 204.743L106.51 216.169L118.623 208.723L111.599 197.297Z" fill="#55B49E"/>
<path d="M111.599 197.297L99.4864 204.743L106.51 216.169L118.623 208.723L111.599 197.297Z" fill="url(#paint1_linear)"/>
<path d="M115.38 216.09H98.8191V240.658H115.38V216.09Z" fill="#55B49E"/>
<path d="M115.38 216.09H98.8191V240.658H115.38V216.09Z" fill="url(#paint2_linear)"/>
<path d="M81.154 201.113H60.5415V238.22H81.154V201.113Z" fill="#55B49E"/>
<path d="M81.154 201.113H60.5415V238.22H81.154V201.113Z" fill="url(#paint3_linear)"/>
<path d="M55.8756 237.529L76.4881 212.721L91.7434 226.257L98.339 222.408L105.76 229.56L96.9662 238.354L55.8756 237.529Z" fill="#55B49E"/>
<path d="M55.8756 237.529L76.4881 212.721L91.7434 226.257L98.339 222.408L105.76 229.56L96.9662 238.354L55.8756 237.529Z" fill="url(#paint4_linear)"/>
<path d="M337.394 149.165H305.222V237.394H337.394V149.165Z" fill="#55B49E"/>
<path d="M337.394 149.165H305.222V237.394H337.394V149.165Z" fill="url(#paint5_linear)"/>
<path d="M288.777 229.906C281.307 223.848 278.677 213.671 277.563 204.118C276.449 194.566 276.334 184.62 272.216 175.931C266.503 163.901 254.291 156.586 242.742 150.009C232.805 144.316 222.292 138.489 210.829 138.325C202.515 138.239 192.492 138.037 184.668 140.86C175.144 144.297 165.802 148.192 156.643 152.544C151.786 154.858 146.928 157.344 142.905 160.925C137.884 165.409 134.437 171.38 131.5 177.438C124.901 191.07 120.464 205.645 118.347 220.641C116.849 231.269 106.461 241.628 102.775 251.709C101.642 254.8 100.595 258.141 101.421 261.309C102.698 266.263 107.911 268.99 112.682 270.843C139.257 281.125 168.289 282.661 196.755 284.082C224.193 285.455 251.67 286.818 279.109 285.704C286.895 285.388 294.854 284.831 301.997 281.71C309.139 278.59 315.437 272.427 316.57 264.717C318.673 250.729 299.721 238.796 288.777 229.906Z" fill="#55B49E"/>
<path d="M196.323 182.546C196.583 182.341 196.879 182.188 197.196 182.095C197.64 182.045 198.089 182.108 198.502 182.277C200.651 182.912 202.887 183.198 205.126 183.122C205.899 183.038 206.681 183.08 207.44 183.247C208.612 183.709 209.616 184.516 210.32 185.56L214.679 190.879C215.255 191.58 216.081 192.348 216.916 192.002C217.361 191.769 217.703 191.379 217.876 190.908C219.693 187.132 220.342 182.9 219.739 178.754C219.652 177.648 219.249 176.592 218.577 175.71C217.675 174.82 216.464 174.315 215.198 174.299C211.857 174.088 208.717 175.758 205.52 176.785C202.44 177.765 199.201 178.15 195.977 177.918C195.282 177.812 194.573 177.851 193.894 178.034C193.323 178.276 192.813 178.64 192.396 179.099C191.081 180.386 186.636 184.389 188.22 186.29C189.958 188.421 194.815 183.592 196.323 182.546Z" fill="url(#paint6_linear)"/>
<path d="M117.905 222.369C119.355 220.564 119.969 211.242 122.139 210.455C124.309 209.668 137.173 207.479 139.554 207.939C160.561 211.962 179.81 227.621 201.056 225.096C215.572 223.377 229.512 218.5 243.087 213.076C249.654 210.455 256.931 207.661 263.604 210.032C268.827 211.885 272.465 216.532 275.816 220.948L292.905 243.529C294.009 244.988 295.171 246.63 295.017 248.454C294.719 252.246 289.641 253.206 285.839 253.11C229.042 251.632 172.27 249.5 115.524 246.716C108.871 246.716 116.734 223.828 117.905 222.369Z" fill="url(#paint7_linear)"/>
<path d="M122.523 237.529C128.748 237.529 133.794 232.482 133.794 226.257C133.794 220.033 128.748 214.986 122.523 214.986C116.298 214.986 111.252 220.033 111.252 226.257C111.252 232.482 116.298 237.529 122.523 237.529Z" fill="#55B49E"/>
<path d="M122.523 237.529C128.748 237.529 133.794 232.482 133.794 226.257C133.794 220.033 128.748 214.986 122.523 214.986C116.298 214.986 111.252 220.033 111.252 226.257C111.252 232.482 116.298 237.529 122.523 237.529Z" fill="url(#paint8_linear)"/>
<path d="M292.089 148.099H246.073V237.807H292.089V148.099Z" fill="#55B49E"/>
<path d="M292.089 148.099H246.073V237.807H292.089V148.099Z" fill="url(#paint9_linear)"/>
<path d="M234.879 95.7276C235.503 95.7904 236.102 96.0087 236.62 96.3626C237.138 96.7165 237.56 97.1946 237.845 97.7533C239.141 99.9807 238.805 102.794 238.133 105.271C237.01 109.188 234.658 113.114 230.818 114.468C230.589 114.587 230.336 114.649 230.078 114.649C229.821 114.649 229.568 114.587 229.339 114.468C229.03 114.127 228.865 113.68 228.878 113.22C228.494 110.753 228.371 108.253 228.514 105.76C228.734 102.794 230.952 95.6508 234.879 95.7276Z" fill="url(#paint10_linear)"/>
<path d="M161.588 97.3789C160.963 97.4417 160.365 97.66 159.846 98.0139C159.328 98.3678 158.907 98.8459 158.621 99.4046C157.325 101.632 157.661 104.435 158.333 106.922C159.447 110.839 161.799 114.766 165.639 116.119C165.869 116.24 166.124 116.304 166.383 116.304C166.643 116.304 166.898 116.24 167.127 116.119C167.456 115.783 167.639 115.331 167.636 114.862C168.021 112.398 168.143 109.901 168.001 107.412C167.732 104.445 165.514 97.2925 161.588 97.3789Z" fill="url(#paint11_linear)"/>
<path d="M188.911 155.146C188.345 159.946 186.828 164.842 188.143 169.479C189.814 175.374 196.236 179.32 202.333 178.734C208.429 178.149 213.777 173.483 215.774 167.694C218.654 159.389 215.226 150.355 211.847 142.243C211.63 141.32 211.106 140.499 210.361 139.913C209.616 139.327 208.695 139.011 207.747 139.017L201.651 138.057C197.619 137.394 190.505 136.396 188.748 141.33C187.471 144.902 189.391 151.142 188.911 155.146Z" fill="url(#paint12_linear)"/>
<path d="M185.82 146.083C185.82 146.083 178.264 163.037 181.931 177.928L186.281 189.612L196.841 178.389C196.841 178.389 187.001 160.743 189.631 148.262C190.745 142.838 185.82 146.083 185.82 146.083Z" fill="white"/>
<path d="M189.036 148.473C189.036 148.473 189.938 156.557 194.403 160.224C202.083 166.551 216.916 162.423 216.647 158.026C216.378 153.629 213.229 146.275 213.229 146.275L189.036 148.473Z" fill="url(#paint13_linear)"/>
<path d="M216.062 145.632C216.062 145.632 225.912 161.223 221.102 177.928L217.204 189.842L208.045 176.584C208.045 176.584 213.997 169.249 213.805 161.223C213.613 153.197 213.124 147.705 213.124 147.705C213.124 147.705 214.228 145.632 216.062 145.632Z" fill="white"/>
<path d="M165.706 112.941C167.099 117.809 184.437 152.458 198.867 153.264C218.212 154.368 225.499 130.482 227.074 124.808C232.147 106.552 233.195 87.4122 230.146 68.7115C229.186 63.0088 227.688 56.9892 223.425 53.0721C219.163 49.1551 212.865 48.1182 207.047 47.5998C197.984 46.8125 188.69 46.7645 179.973 49.3567C149.529 58.4965 158.967 89.3144 165.706 112.941Z" fill="url(#paint14_linear)"/>
<path d="M167.435 85.1862C167.703 84.5909 168.097 83.9093 168.75 83.8901C169.403 83.8709 169.71 84.2837 170.123 84.6101C172.1 86.127 174.923 85.647 177.266 84.7541C179.608 83.8613 181.912 82.6036 184.399 82.7572C187.183 82.9396 189.516 84.8501 192.079 85.9638C194.534 87.0166 197.238 87.3496 199.875 86.9239C204.752 86.1366 209.725 82.7956 214.218 84.8501C215.428 85.3974 216.513 86.3286 217.838 86.4918C219.633 86.7223 221.304 85.455 223.118 85.3398C226.334 85.1189 228.677 88.4888 229.33 91.6474C229.982 94.806 229.723 98.2046 231.087 101.123C233.095 95.6845 234.782 90.1321 236.136 84.4949C236.566 83.045 236.729 81.5291 236.617 80.021C236.252 77.4001 234.312 75.2207 234.005 72.5806C233.945 71.0723 234.097 69.5631 234.456 68.0971C235.052 64.4486 234.869 60.7154 233.919 57.1428C233.429 54.9678 232.418 52.9447 230.971 51.248C229.345 49.6893 227.448 48.44 225.374 47.5614L212.452 41.1194C209.581 39.5354 206.524 38.3162 203.35 37.4904C200.722 36.929 198.009 36.9015 195.37 37.4095C192.731 37.9174 190.221 38.9505 187.989 40.4473C186.281 41.5994 184.754 43.0203 182.978 44.0668C180.271 45.6701 177.112 46.3133 174.04 47.0238C169.806 47.9838 165.514 49.1743 161.943 51.6416C158.372 54.109 155.578 58.1029 155.645 62.4519C155.645 64.1704 156.135 65.8697 156.183 67.5882C156.336 73.3486 151.891 78.9074 153.398 84.4757C154.032 86.8279 155.655 88.652 156.653 90.8217C157.738 93.1931 157.344 95.3436 157.911 97.7821C158.621 100.864 162.605 104.791 165.87 104.723C164.881 97.9358 164.641 91.6666 167.435 85.1862Z" fill="#606060"/>
<path d="M167.435 85.1862C167.703 84.5909 168.097 83.9093 168.75 83.8901C169.403 83.8709 169.71 84.2837 170.123 84.6101C172.1 86.127 174.923 85.647 177.266 84.7541C179.608 83.8613 181.912 82.6036 184.399 82.7572C187.183 82.9396 189.516 84.8501 192.079 85.9638C194.534 87.0166 197.238 87.3496 199.875 86.9239C204.752 86.1366 209.725 82.7956 214.218 84.8501C215.428 85.3974 216.513 86.3286 217.838 86.4918C219.633 86.7223 221.304 85.455 223.118 85.3398C226.334 85.1189 228.677 88.4888 229.33 91.6474C229.982 94.806 229.723 98.2046 231.087 101.123C233.095 95.6845 234.782 90.1321 236.136 84.4949C236.566 83.045 236.729 81.5291 236.617 80.021C236.252 77.4001 234.312 75.2207 234.005 72.5806C233.945 71.0723 234.097 69.5631 234.456 68.0971C235.052 64.4486 234.869 60.7154 233.919 57.1428C233.429 54.9678 232.418 52.9447 230.971 51.248C229.345 49.6893 227.448 48.44 225.374 47.5614L212.452 41.1194C209.581 39.5354 206.524 38.3162 203.35 37.4904C200.722 36.929 198.009 36.9015 195.37 37.4095C192.731 37.9174 190.221 38.9505 187.989 40.4473C186.281 41.5994 184.754 43.0203 182.978 44.0668C180.271 45.6701 177.112 46.3133 174.04 47.0238C169.806 47.9838 165.514 49.1743 161.943 51.6416C158.372 54.109 155.578 58.1029 155.645 62.4519C155.645 64.1704 156.135 65.8697 156.183 67.5882C156.336 73.3486 151.891 78.9074 153.398 84.4757C154.032 86.8279 155.655 88.652 156.653 90.8217C157.738 93.1931 157.344 95.3436 157.911 97.7821C158.621 100.864 162.605 104.791 165.87 104.723C164.881 97.9358 164.641 91.6666 167.435 85.1862Z" fill="url(#paint15_linear)"/>
<path d="M345.449 237.701V270.939C338.563 276.355 331.168 281.091 323.368 285.08C296.899 298.377 266.35 300.441 236.741 301.949C211.357 303.245 185.935 304.32 160.513 304.829C138.316 305.27 113.335 308.055 91.513 303.129C77.1889 299.875 70.4685 291.004 60.4647 281.23C58.1797 279.003 55.866 276.833 53.5234 274.721V237.701H345.449Z" fill="#55B49E"/>
<path d="M289.977 216.772H248.339V237.797H289.977V216.772Z" fill="#55B49E"/>
<path d="M289.977 194.787H248.339V215.812H289.977V194.787Z" fill="#55B49E"/>
<path d="M289.977 172.523H248.339V193.548H289.977V172.523Z" fill="#55B49E"/>
<path d="M289.977 150.259H248.339V171.284H289.977V150.259Z" fill="#55B49E"/>
<path d="M289.977 223.569H248.339V237.807H289.977V223.569Z" fill="url(#paint16_linear)"/>
<path d="M289.977 203.83H248.339V215.812H289.977V203.83Z" fill="url(#paint17_linear)"/>
<path d="M289.977 181.855H248.339V193.548H289.977V181.855Z" fill="url(#paint18_linear)"/>
<path d="M289.977 158.237H248.339V171.294H289.977V158.237Z" fill="url(#paint19_linear)"/>
<path d="M307.296 237.596L337.394 216.983V237.394L307.296 237.596Z" fill="#55B49E"/>
<path d="M307.296 216.57L337.394 195.958V216.369L307.296 216.57Z" fill="#55B49E"/>
<path d="M307.296 195.545L337.394 174.933V195.334L307.296 195.545Z" fill="#55B49E"/>
<path d="M307.296 174.52L337.394 153.907V174.309L307.296 174.52Z" fill="#55B49E"/>
<path d="M307.296 237.596L337.394 216.983V237.394L307.296 237.596Z" fill="url(#paint20_linear)"/>
<path d="M307.296 216.57L337.394 195.958V216.369L307.296 216.57Z" fill="url(#paint21_linear)"/>
<path d="M307.296 195.545L337.394 174.933V195.334L307.296 195.545Z" fill="url(#paint22_linear)"/>
<path d="M307.296 174.52L337.394 153.907V174.309L307.296 174.52Z" fill="url(#paint23_linear)"/>
<path d="M89.8137 217.185H67.0027V237.529H89.8137V217.185Z" fill="#55B49E"/>
<path d="M89.8137 217.185H67.0027V237.529H89.8137V217.185Z" fill="url(#paint24_linear)"/>
<path d="M87.3463 210.32L103.562 237.25L123.896 225.979L87.3463 210.32Z" fill="#55B49E"/>
<path d="M87.3463 210.32L103.562 237.25L123.896 225.979L87.3463 210.32Z" fill="url(#paint25_linear)"/>
<path d="M309.956 130.799C306.019 126.469 301.891 122.004 296.515 119.796C294.018 118.862 291.416 118.239 288.767 117.943C283.244 117.037 277.603 117.121 272.11 118.193C266.58 119.294 261.585 122.234 257.939 126.536C257.556 126.916 257.264 127.378 257.083 127.886C256.901 128.394 256.837 128.937 256.893 129.474C257.174 130.277 257.728 130.957 258.458 131.394C261.313 133.469 264.592 134.888 268.058 135.551C270.372 135.983 272.763 136.079 274.961 136.914C277.16 137.749 279.186 139.593 279.349 141.935C279.416 142.895 279.186 143.932 279.666 144.758C280.193 145.462 280.963 145.944 281.826 146.112C287.663 147.907 294.163 148.339 299.74 145.881C305.318 143.423 310.58 136.914 309.965 130.837L309.956 130.799Z" fill="url(#paint26_linear)"/>
<path d="M243.443 131.48L285.512 128.408L286.895 142.703L244.326 146.275L243.443 131.48Z" fill="#55B49E"/>
<path d="M243.443 131.48L285.512 128.408L286.895 142.703L244.326 146.275L243.443 131.48Z" fill="url(#paint27_linear)"/>
</g>
<defs>
<linearGradient id="paint0_linear" x1="79.109" y1="212.068" x2="101.786" y2="226.507" gradientUnits="userSpaceOnUse">
<stop stop-opacity="0"/>
<stop offset="0.95"/>
</linearGradient>
<linearGradient id="paint1_linear" x1="1550.09" y1="3001.94" x2="1831.85" y2="3210.26" gradientUnits="userSpaceOnUse">
<stop stop-opacity="0"/>
<stop offset="0.95"/>
</linearGradient>
<linearGradient id="paint2_linear" x1="1715.01" y1="5857.63" x2="2146.52" y2="6042.67" gradientUnits="userSpaceOnUse">
<stop stop-opacity="0"/>
<stop offset="0.95"/>
</linearGradient>
<linearGradient id="paint3_linear" x1="1295.64" y1="8185.66" x2="2027.39" y2="8615.59" gradientUnits="userSpaceOnUse">
<stop stop-opacity="0"/>
<stop offset="0.95"/>
</linearGradient>
<linearGradient id="paint4_linear" x1="4283.11" y1="5842.89" x2="4247.16" y2="6899.31" gradientUnits="userSpaceOnUse">
<stop stop-opacity="0"/>
<stop offset="0.95"/>
</linearGradient>
<linearGradient id="paint5_linear" x1="11855.8" y1="18026.2" x2="8264.62" y2="17958.9" gradientUnits="userSpaceOnUse">
<stop stop-opacity="0"/>
<stop offset="0.95"/>
</linearGradient>
<linearGradient id="paint6_linear" x1="6973.93" y1="2972.52" x2="6921.94" y2="4921.6" gradientUnits="userSpaceOnUse">
<stop stop-opacity="0"/>
<stop offset="0.95"/>
</linearGradient>
<linearGradient id="paint7_linear" x1="37765.1" y1="8148" x2="37864.1" y2="17715.2" gradientUnits="userSpaceOnUse">
<stop stop-opacity="0"/>
<stop offset="0.95"/>
</linearGradient>
<linearGradient id="paint8_linear" x1="126.44" y1="224.356" x2="105.827" y2="234.389" gradientUnits="userSpaceOnUse">
<stop stop-opacity="0"/>
<stop offset="0.63" stop-opacity="0.4"/>
<stop offset="0.95"/>
</linearGradient>
<linearGradient id="paint9_linear" x1="14645.8" y1="12540.4" x2="4195.78" y2="22549.6" gradientUnits="userSpaceOnUse">
<stop stop-opacity="0"/>
<stop offset="0.95"/>
</linearGradient>
<linearGradient id="paint10_linear" x1="228.389" y1="105.184" x2="238.738" y2="105.184" gradientUnits="userSpaceOnUse">
<stop stop-color="#E5C5D5"/>
<stop offset="0.42" stop-color="#EAD4D1"/>
<stop offset="1" stop-color="#F0E9CB"/>
</linearGradient>
<linearGradient id="paint11_linear" x1="6465.91" y1="2204.73" x2="6354.67" y2="2204.73" gradientUnits="userSpaceOnUse">
<stop stop-color="#E5C5D5"/>
<stop offset="0.42" stop-color="#EAD4D1"/>
<stop offset="1" stop-color="#F0E9CB"/>
</linearGradient>
<linearGradient id="paint12_linear" x1="6260.23" y1="8224.96" x2="6326.7" y2="5885.05" gradientUnits="userSpaceOnUse">
<stop stop-color="#E5C5D5"/>
<stop offset="0.42" stop-color="#EAD4D1"/>
<stop offset="1" stop-color="#F0E9CB"/>
</linearGradient>
<linearGradient id="paint13_linear" x1="5866.94" y1="3354.43" x2="5963.42" y2="2087.11" gradientUnits="userSpaceOnUse">
<stop stop-opacity="0"/>
<stop offset="0.95"/>
</linearGradient>
<linearGradient id="paint14_linear" x1="12063.3" y1="11139.3" x2="17616.1" y2="11139.3" gradientUnits="userSpaceOnUse">
<stop stop-color="#E5C5D5"/>
<stop offset="0.42" stop-color="#EAD4D1"/>
<stop offset="1" stop-color="#F0E9CB"/>
</linearGradient>
<linearGradient id="paint15_linear" x1="13278.6" y1="5039.01" x2="20555.5" y2="5039.01" gradientUnits="userSpaceOnUse">
<stop stop-opacity="0"/>
<stop offset="0.95"/>
</linearGradient>
<linearGradient id="paint16_linear" x1="12035.2" y1="3433.6" x2="11979.8" y2="4078.01" gradientUnits="userSpaceOnUse">
<stop stop-opacity="0"/>
<stop offset="0.95"/>
</linearGradient>
<linearGradient id="paint17_linear" x1="11976.5" y1="2638.72" x2="11953.6" y2="3167.67" gradientUnits="userSpaceOnUse">
<stop stop-opacity="0"/>
<stop offset="0.95"/>
</linearGradient>
<linearGradient id="paint18_linear" x1="11972.7" y1="2312.18" x2="11950.2" y2="2792.6" gradientUnits="userSpaceOnUse">
<stop stop-opacity="0"/>
<stop offset="0.95"/>
</linearGradient>
<linearGradient id="paint19_linear" x1="12068.1" y1="2208.16" x2="11995.1" y2="2961.89" gradientUnits="userSpaceOnUse">
<stop stop-opacity="0"/>
<stop offset="0.95"/>
</linearGradient>
<linearGradient id="paint20_linear" x1="10359.4" y1="4484.8" x2="10383.5" y2="5830.67" gradientUnits="userSpaceOnUse">
<stop stop-opacity="0"/>
<stop offset="0.95"/>
</linearGradient>
<linearGradient id="paint21_linear" x1="10388.6" y1="4297.02" x2="10384.6" y2="5102.58" gradientUnits="userSpaceOnUse">
<stop stop-opacity="0"/>
<stop offset="0.95"/>
</linearGradient>
<linearGradient id="paint22_linear" x1="10371.7" y1="4021.63" x2="10398" y2="4674.8" gradientUnits="userSpaceOnUse">
<stop stop-opacity="0"/>
<stop offset="0.95"/>
</linearGradient>
<linearGradient id="paint23_linear" x1="10367.2" y1="3571.05" x2="10403.7" y2="4110.76" gradientUnits="userSpaceOnUse">
<stop stop-opacity="0"/>
<stop offset="0.95"/>
</linearGradient>
<linearGradient id="paint24_linear" x1="1936.37" y1="4469.83" x2="1873.93" y2="5990.77" gradientUnits="userSpaceOnUse">
<stop stop-opacity="0"/>
<stop offset="0.95"/>
</linearGradient>
<linearGradient id="paint25_linear" x1="4121.68" y1="6150.2" x2="3953.71" y2="7265.34" gradientUnits="userSpaceOnUse">
<stop stop-opacity="0"/>
<stop offset="0.95"/>
</linearGradient>
<linearGradient id="paint26_linear" x1="14343.4" y1="4295.35" x2="17288.5" y2="4295.35" gradientUnits="userSpaceOnUse">
<stop stop-color="#E5C5D5"/>
<stop offset="0.42" stop-color="#EAD4D1"/>
<stop offset="1" stop-color="#F0E9CB"/>
</linearGradient>
<linearGradient id="paint27_linear" x1="260.368" y1="152.928" x2="276.862" y2="98.5022" gradientUnits="userSpaceOnUse">
<stop stop-opacity="0"/>
<stop offset="0.81" stop-opacity="0.66"/>
<stop offset="0.95"/>
</linearGradient>
<clipPath id="clip0">
<rect width="406" height="306" fill="white"/>
</clipPath>
</defs>
</svg>
